<svg xmlns="http://www.w3.org/2000/svg" viewBox="0 0 24 24">
  <!-- Power symbol carved into bark — light cream like carved wood -->
  <!-- Arc -->
  <path d="M5.5 7.5 C3.5 9.5, 2.5 12, 2.5 14.5 C2.5 19, 6.5 22, 12 22 C17.5 22, 21.5 19, 21.5 14.5 C21.5 12, 20.5 9.5, 18.5 7.5"
    stroke="#c4a882" stroke-width="2.8" fill="none" stroke-linecap="round"/>
  <!-- Inner grain -->
  <path d="M6 8 C4.2 10, 3.2 12.5, 3.2 14.5 C3.2 18.5, 7 21.3, 12 21.3 C17 21.3, 20.8 18.5, 20.8 14.5 C20.8 12.5, 19.8 10, 18 8"
    stroke="#a08060" stroke-width="0.6" fill="none" stroke-linecap="round" opacity="0.5"/>

  <!-- Stem -->
  <path d="M12 2.5 L12 12" stroke="#c4a882" stroke-width="2.8" stroke-linecap="round"/>
  <path d="M11.3 3 L11.3 11.5" stroke="#a08060" stroke-width="0.4" fill="none" opacity="0.5"/>
</svg>
