<svg xmlns="http://www.w3.org/2000/svg" viewBox="0 0 8 200" width="8" height="200">
  <!-- Main bark edge shape - straight left, irregular right -->
  <path d="M0,0 L5,0
           C5.5,3 6,5 5.8,8
           C5.5,11 6.2,14 6.8,17
           C7.2,20 6.5,23 5.5,26
           C5,28 5.8,31 6.5,34
           C7,37 6.8,40 6,43
           C5.3,46 5.8,49 6.5,52
           C7.2,55 7,58 6.2,61
           C5.5,64 5.2,67 5.8,70
           C6.3,73 7,76 6.5,79
           C6,82 5.5,85 6,88
           C6.5,91 7.2,94 6.8,97
           C6.3,100 5.5,103 5.8,106
           C6.2,109 6.8,112 6.5,115
           C6,118 5.3,121 5.8,124
           C6.5,127 7,130 6.2,133
           C5.5,136 5.2,139 6,142
           C6.8,145 7.2,148 6.5,151
           C5.8,154 5.5,157 6.2,160
           C6.8,163 6.5,166 5.8,169
           C5.2,172 5.5,175 6.3,178
           C7,181 6.8,184 6,187
           C5.3,190 5.8,193 6.5,196
           C6.8,198 6,200 5,200
           L0,200Z"
        fill="#5c4333"/>

  <!-- Bark texture ridges - vertical lines with slight variation -->
  <path d="M1,0 C1.2,10 1,20 1.3,30 C1.5,40 1.2,50 1,60
           C0.8,70 1.2,80 1.5,90 C1.3,100 1,110 1.2,120
           C1.5,130 1.3,140 1,150 C0.8,160 1.2,170 1.5,180
           C1.3,190 1,200 1,200"
        stroke="#4a3425" stroke-width="0.8" fill="none" opacity="0.5"/>

  <path d="M3,0 C3.3,8 3.5,16 3.2,24 C3,32 3.4,40 3.8,48
           C3.5,56 3,64 3.3,72 C3.6,80 3.8,88 3.5,96
           C3.2,104 3,112 3.3,120 C3.6,128 3.8,136 3.4,144
           C3,152 3.2,160 3.5,168 C3.8,176 3.5,184 3.2,192
           C3,200 3,200 3,200"
        stroke="#4a3425" stroke-width="0.6" fill="none" opacity="0.4"/>

  <!-- Lighter bark highlights -->
  <path d="M2,5 C2.5,15 2.2,25 2.5,35"
        stroke="#6b5040" stroke-width="1" fill="none" opacity="0.3"/>
  <path d="M2,55 C2.3,65 2.5,75 2.2,85"
        stroke="#6b5040" stroke-width="1" fill="none" opacity="0.3"/>
  <path d="M2,105 C2.5,115 2.2,125 2.5,135"
        stroke="#6b5040" stroke-width="1" fill="none" opacity="0.3"/>
  <path d="M2,155 C2.3,165 2.5,175 2.2,185"
        stroke="#6b5040" stroke-width="1" fill="none" opacity="0.3"/>

  <!-- Knot/bump details -->
  <ellipse cx="4" cy="45" rx="1.5" ry="2" fill="#4a3425" opacity="0.4"/>
  <ellipse cx="3.5" cy="95" rx="1.2" ry="1.8" fill="#4a3425" opacity="0.35"/>
  <ellipse cx="4" cy="150" rx="1.5" ry="2" fill="#4a3425" opacity="0.4"/>

  <!-- Edge shadow on the right bumps -->
  <path d="M5.8,8 C6,9 6.3,10 6.5,11" stroke="#4a3425" stroke-width="0.4" fill="none" opacity="0.3"/>
  <path d="M6.8,17 C7,18 7.1,19 7.2,20" stroke="#4a3425" stroke-width="0.4" fill="none" opacity="0.3"/>
  <path d="M6.5,52 C6.8,53 7,54 7.2,55" stroke="#4a3425" stroke-width="0.4" fill="none" opacity="0.3"/>
  <path d="M6.5,79 C6.3,80 6,81 6,82" stroke="#4a3425" stroke-width="0.4" fill="none" opacity="0.3"/>
  <path d="M7,130 C6.8,131 6.5,132 6.2,133" stroke="#4a3425" stroke-width="0.4" fill="none" opacity="0.3"/>
</svg>
