<svg xmlns="http://www.w3.org/2000/svg" viewBox="0 0 40 200" preserveAspectRatio="none">
  <!-- Bark base - lighter for visibility -->
  <rect width="40" height="200" fill="#5c4333" rx="4"/>
  <!-- Bark ridges -->
  <path d="M8 0 C7 40, 9 80, 8 120 C7 160, 9 200, 8 200" stroke="#4a3425" stroke-width="2.5" fill="none" opacity="0.6"/>
  <path d="M16 0 C17 50, 15 100, 16 150 C17 180, 15 200, 16 200" stroke="#4a3425" stroke-width="2" fill="none" opacity="0.5"/>
  <path d="M24 0 C23 30, 25 70, 24 110 C23 150, 25 190, 24 200" stroke="#4a3425" stroke-width="2.2" fill="none" opacity="0.55"/>
  <path d="M32 0 C33 45, 31 90, 32 135 C33 170, 31 200, 32 200" stroke="#4a3425" stroke-width="2" fill="none" opacity="0.5"/>
  <!-- Lighter highlights -->
  <path d="M12 0 C11 35, 13 75, 12 115 C11 155, 13 200, 12 200" stroke="#6b5040" stroke-width="1.2" fill="none" opacity="0.4"/>
  <path d="M28 0 C29 25, 27 65, 28 105 C29 145, 27 185, 28 200" stroke="#6b5040" stroke-width="1.2" fill="none" opacity="0.4"/>
  <path d="M4 0 C5 60, 3 120, 4 180 C5 195, 3 200, 4 200" stroke="#6b5040" stroke-width="0.8" fill="none" opacity="0.3"/>
  <path d="M36 0 C35 50, 37 100, 36 160 C35 190, 37 200, 36 200" stroke="#6b5040" stroke-width="0.8" fill="none" opacity="0.3"/>
  <!-- Knots -->
  <circle cx="12" cy="45" r="3.5" fill="#4a3425" stroke="#6b5040" stroke-width="0.7" opacity="0.7"/>
  <circle cx="28" cy="110" r="3" fill="#4a3425" stroke="#6b5040" stroke-width="0.7" opacity="0.6"/>
  <circle cx="18" cy="165" r="2.5" fill="#4a3425" stroke="#6b5040" stroke-width="0.6" opacity="0.6"/>
</svg>
