<svg xmlns="http://www.w3.org/2000/svg" viewBox="0 0 100 60" width="100" height="60">
  <!-- Deep background foliage -->
  <path d="M50,58 C45,55 30,52 20,45 C12,39 5,30 8,22 C10,16 15,12 22,10
           C26,8 30,6 35,5 C38,4 42,2 50,1 C58,2 62,4 65,5
           C70,6 74,8 78,10 C85,12 90,16 92,22 C95,30 88,39 80,45
           C70,52 55,55 50,58Z"
        fill="#2a4f2a"/>

  <!-- Mid-layer foliage clusters -->
  <path d="M50,55 C42,50 25,46 18,38 C13,32 12,25 16,19
           C20,14 28,11 35,9 C40,7 45,5 50,4
           C55,5 60,7 65,9 C72,11 80,14 84,19
           C88,25 87,32 82,38 C75,46 58,50 50,55Z"
        fill="#3d6b3d"/>

  <!-- Upper highlight clusters -->
  <path d="M35,42 C28,38 18,32 16,25 C14,19 20,14 28,12
           C34,10 40,9 45,8 C48,7 50,6 50,6
           C46,10 38,16 32,22 C27,28 30,35 35,42Z"
        fill="#4a7a4a"/>
  <path d="M65,42 C72,38 82,32 84,25 C86,19 80,14 72,12
           C66,10 60,9 55,8 C52,7 50,6 50,6
           C54,10 62,16 68,22 C73,28 70,35 65,42Z"
        fill="#4a7a4a"/>

  <!-- Leaf detail clusters - left side -->
  <path d="M22,35 C18,30 14,24 17,19 C19,15 25,13 30,14
           C28,18 24,24 22,35Z"
        fill="#3a6238"/>
  <path d="M30,40 C25,35 20,28 23,22 C25,18 30,16 34,17
           C32,21 30,30 30,40Z"
        fill="#2a4f2a"/>

  <!-- Leaf detail clusters - right side -->
  <path d="M78,35 C82,30 86,24 83,19 C81,15 75,13 70,14
           C72,18 76,24 78,35Z"
        fill="#3a6238"/>
  <path d="M70,40 C75,35 80,28 77,22 C75,18 70,16 66,17
           C68,21 70,30 70,40Z"
        fill="#2a4f2a"/>

  <!-- Central dense canopy mass -->
  <path d="M38,48 C33,42 28,34 30,26 C32,20 38,16 44,14
           C48,12 50,11 50,11 C50,11 52,12 56,14
           C62,16 68,20 70,26 C72,34 67,42 62,48
           C58,52 54,54 50,55 C46,54 42,52 38,48Z"
        fill="#356035"/>

  <!-- Top highlight -->
  <path d="M42,20 C44,14 47,10 50,8 C53,10 56,14 58,20
           C55,17 52,15 50,14 C48,15 45,17 42,20Z"
        fill="#5a8a5a"/>

  <!-- Small leaf accent spots -->
  <circle cx="25" cy="28" r="3" fill="#4a7a4a" opacity="0.7"/>
  <circle cx="40" cy="15" r="2.5" fill="#5a8a5a" opacity="0.6"/>
  <circle cx="60" cy="15" r="2.5" fill="#5a8a5a" opacity="0.6"/>
  <circle cx="75" cy="28" r="3" fill="#4a7a4a" opacity="0.7"/>
  <circle cx="50" cy="10" r="2" fill="#5a8a5a" opacity="0.5"/>

  <!-- Bottom edge irregularity - dangling leaf clusters -->
  <path d="M35,52 C33,54 31,56 30,55 C29,53 32,50 35,52Z" fill="#3d6b3d"/>
  <path d="M45,56 C43,58 41,59 40,58 C39,56 42,54 45,56Z" fill="#2a4f2a"/>
  <path d="M55,56 C57,58 59,59 60,58 C61,56 58,54 55,56Z" fill="#2a4f2a"/>
  <path d="M65,52 C67,54 69,56 70,55 C71,53 68,50 65,52Z" fill="#3d6b3d"/>
</svg>
