<svg xmlns="http://www.w3.org/2000/svg" viewBox="0 0 80 50" width="80" height="50">
  <!-- Trunk base flaring into roots -->
  <path d="M34,0 L34,5 C32,8 28,12 24,16 C20,20 16,26 12,32
           C10,35 8,38 8,40 C8,42 9,42 10,41
           C12,38 14,34 18,28 C22,22 26,16 30,12
           C32,10 34,8 36,6 L36,0Z"
        fill="#5c4333"/>
  <path d="M46,0 L46,5 C48,8 52,12 56,16 C60,20 64,26 68,32
           C70,35 72,38 72,40 C72,42 71,42 70,41
           C68,38 66,34 62,28 C58,22 54,16 50,12
           C48,10 46,8 44,6 L44,0Z"
        fill="#5c4333"/>

  <!-- Central trunk mass -->
  <path d="M36,0 L44,0 L44,6 C43,8 42,10 41,13
           C40.5,15 40,18 40,20
           C40,18 39.5,15 39,13
           C38,10 37,8 36,6Z"
        fill="#6b5040"/>

  <!-- Main left root -->
  <path d="M30,14 C24,20 16,28 10,34 C6,38 3,42 2,45
           C1,47 2,48 3,47 C5,44 8,40 12,36
           C18,30 26,22 32,16Z"
        fill="#4a3728"/>

  <!-- Main right root -->
  <path d="M50,14 C56,20 64,28 70,34 C74,38 77,42 78,45
           C79,47 78,48 77,47 C75,44 72,40 68,36
           C62,30 54,22 48,16Z"
        fill="#4a3728"/>

  <!-- Secondary left root (shallower) -->
  <path d="M35,10 C30,16 22,24 15,30 C12,33 8,36 5,38
           C4,39 3,38 4,37 C7,34 10,31 14,28
           C20,22 28,15 34,11Z"
        fill="#5c4333" opacity="0.8"/>

  <!-- Secondary right root (shallower) -->
  <path d="M45,10 C50,16 58,24 65,30 C68,33 72,36 75,38
           C76,39 77,38 76,37 C73,34 70,31 66,28
           C60,22 52,15 46,11Z"
        fill="#5c4333" opacity="0.8"/>

  <!-- Small tendril roots - left -->
  <path d="M18,30 C14,35 10,40 6,44 C5,45 4,44 5,43
           C8,40 12,36 16,32Z"
        fill="#4a3728" opacity="0.7"/>
  <path d="M22,26 C18,32 13,38 10,42
           C9,43 8,42 9,41 C12,37 16,32 20,28Z"
        fill="#4a3728" opacity="0.6"/>

  <!-- Small tendril roots - right -->
  <path d="M62,30 C66,35 70,40 74,44 C75,45 76,44 75,43
           C72,40 68,36 64,32Z"
        fill="#4a3728" opacity="0.7"/>
  <path d="M58,26 C62,32 67,38 70,42
           C71,43 72,42 71,41 C68,37 64,32 60,28Z"
        fill="#4a3728" opacity="0.6"/>

  <!-- Tiny hair roots -->
  <path d="M8,40 C6,43 4,46 3,48 C2.5,49 3.5,49 4,48 C5,46 7,43 8,41Z"
        fill="#4a3728" opacity="0.5"/>
  <path d="M72,40 C74,43 76,46 77,48 C77.5,49 76.5,49 76,48 C75,46 73,43 72,41Z"
        fill="#4a3728" opacity="0.5"/>
  <path d="M14,36 C11,40 8,44 7,47 C6.5,48 7.5,48 8,47 C9,44 12,40 14,37Z"
        fill="#4a3728" opacity="0.4"/>
  <path d="M66,36 C69,40 72,44 73,47 C73.5,48 72.5,48 72,47 C71,44 68,40 66,37Z"
        fill="#4a3728" opacity="0.4"/>

  <!-- Root surface texture -->
  <path d="M28,16 C26,18 24,20 22,22 C23,21 25,19 27,17Z" fill="#6b5040" opacity="0.4"/>
  <path d="M52,16 C54,18 56,20 58,22 C57,21 55,19 53,17Z" fill="#6b5040" opacity="0.4"/>
  <path d="M38,6 C37,8 36,10 35,12 C36,11 37,9 38,7Z" fill="#5c4333" opacity="0.5"/>
  <path d="M42,6 C43,8 44,10 45,12 C44,11 43,9 42,7Z" fill="#5c4333" opacity="0.5"/>
</svg>
